Poster: 
http://imgr.us/images/ovshq9n1kzeahnu70cup.jpg

Info:
Format : AVI
Format/Info : Audio Video Interleave
File size : 1.43 GiB
Duration : 2h 17mn
Overall bit rate : 1 487 Kbps
Writing application : VirtualDubMod 1.5.10.2 (build 2540/release)
Writing library : VirtualDub build 34807/release

Video
ID : 0
Format : MPEG-4 Visual
Format profile : Advanced Simple@L5
Format settings, BVOP : 2
Format settings, QPel : No
Format settings, GMC : No warppoints
Format settings, Matrix : Default (H.263)
Muxing mode : Packed bitstream
Codec ID : XVID
Codec ID/Hint : XviD
Duration : 2h 17mn
Bit rate : 1 349 Kbps
Width : 640 pixels
Height : 272 pixels
Display aspect ratio : 2.35:1
Frame rate : 25.000 fps
Color space : YUV
Chroma subsampling : 4:2:0
Bit depth : 8 bits
Scan type : Progressive
Compression mode : Lossy
Bits/(Pixel*Frame) : 0.310
Stream size : 1.29 GiB (91%)
Writing library : XviD 64

Audio
ID : 1
Format : MPEG Audio
Format version : Version 1
Format profile : Layer 3
Codec ID : 55
Codec ID/Hint : MP3
Duration : 2h 17mn
Bit rate mode : Constant
Bit rate : 128 Kbps
Channel(s) : 2 channels
Sampling rate : 48.0 KHz
Compression mode : Lossy
Stream size : 126 MiB (9%)
Alignment : Split accross interleaves
Interleave, duration : 40 ms (1.00 video frame)
Interleave, preload duration : 500 ms


Screens: 
http://imgr.us/images/9ikh7zyt9xyern6el0.png 
http://imgr.us/images/nwui4d0imy6v1kxhu837.png 
http://imgr.us/images/589ixmwc1pkhluqydb.png 
http://imgr.us/images/dy9i84mchjclt5l26zie.png